# xmcd
#
# Track frame offsets:
#	150
#	14908
#	31698
#	44095
#	56060
#	71840
#	87865
#	100775
#	112130
#	126905
#
# Disc length: 1877
#
# Revision: 2
# Processed by: cddbd v1.5.1PL0 Copyright (c) Steve Scherf et al.
# Submitted via: VisiTrax 2.9.9.209 - For more info visit www.synapsa.com
# Normalized: r1:DSETVAR1
#
DISCID=9107530a
DTITLE=Various Artist - Country Favorites: 80's Disc 3
DYEAR=1900
DGENRE=Country
TTITLE0=Rodney Crowell - She's Crazy For Leaving
TTITLE1=Janie Fricke - Always Have, Always Will
TTITLE2=Merle Haggard - If You Want To Be My Woman
TTITLE3=Sweethearts Of The Rodeo - I Feel Fine
TTITLE4=The Shooters - Borderline
TTITLE5=Ricky Skaggs - Old Kind Of Love
TTITLE6=Vern Gosdin - Who You Gonna Blame It On This Time
TTITLE7=Shelby Lynne - The Hurtin' Side
TTITLE8=George Jones - The Right Left Hand
TTITLE9=Zaca Creek - Sometimes Love's Not A Pretty Thing
EXTD=
EXTT0=
EXTT1=
EXTT2=
EXTT3=
EXTT4=
EXTT5=
EXTT6=
EXTT7=
EXTT8=
EXTT9=
PLAYORDER=
